<svg xmlns="http://www.w3.org/2000/svg" version="1.1" xmlns:xlink="http://www.w3.org/1999/xlink" xmlns:svgjs="http://svgjs.dev/svgjs" width="1440" height="560" preserveAspectRatio="none" viewBox="0 0 1440 560"><g mask="url(&quot;#SvgjsMask1025&quot;)" fill="none"><rect width="1440" height="560" x="0" y="0" fill="#0e2a47"></rect><path d="M1067.4067457703868 479.01761526334053L1208.306814499701 541.7503676235755 1271.0395668599358 400.8502988942614 1130.1394981306216 338.1175465340265z" fill="rgba(28, 83, 142, 0.4)" class="triangle-float2"></path><path d="M463.718,469.302C488.152,469.88,514.09,462.131,525.87,440.716C537.35,419.846,528.616,394.832,515.687,374.828C504.023,356.781,485.206,344.57,463.718,344.553C442.201,344.536,422.855,356.403,411.604,374.744C399.769,394.037,395.537,418.066,406.462,437.889C417.724,458.323,440.393,468.75,463.718,469.302" fill="rgba(28, 83, 142, 0.4)" class="triangle-float1"></path><path d="M1082.022927997872 59.79162174542589L1067.5401220442545 151.2324597718234 1158.9809600706521 165.71526572544093 1173.4637660242697 74.27442769904343z" fill="rgba(28, 83, 142, 0.4)" class="triangle-float2"></path><path d="M415.27,262.437C462.93,262.761,509.613,238.763,531.075,196.208C550.92,156.859,533.449,111.967,509.968,74.674C488.381,40.389,455.723,14.515,415.27,12.283C370.511,9.813,324.183,25.022,300.556,63.117C275.785,103.055,278.717,153.92,302.159,194.652C325.659,235.484,368.159,262.117,415.27,262.437" fill="rgba(28, 83, 142, 0.4)" class="triangle-float3"></path><path d="M1334.2362640692643 599.809973870484L1506.2190671154212 550.6720301430105 1395.658693728606 440.11165675619526z" fill="rgba(28, 83, 142, 0.4)" class="triangle-float1"></path><path d="M450.64240577677106 399.4899998367033L528.9450645275732 312.6925808711008 429.3770401879515 289.7054911978663z" fill="rgba(28, 83, 142, 0.4)" class="triangle-float1"></path><path d="M1030.897,627.582C1075.308,631.119,1123.233,614.226,1143.845,574.729C1163.471,537.122,1140.585,495.172,1119.081,458.606C1098.005,422.768,1072.384,385.385,1030.897,382.669C985.49,379.696,940.025,404.646,920.153,445.581C902.038,482.895,923.775,523.483,945.336,558.918C965.71,592.401,991.827,624.47,1030.897,627.582" fill="rgba(28, 83, 142, 0.4)" class="triangle-float2"></path><path d="M198.54600247292592 335.8016169483715L142.2823946026257 441.6180733059133 304.36245883046774 392.0652248186717z" fill="rgba(28, 83, 142, 0.4)" class="triangle-float2"></path><path d="M535.6458137043246 572.4805989485774L615.7332015582787 626.500224147732 656.7189454300336 479.3593297672236z" fill="rgba(28, 83, 142, 0.4)" class="triangle-float2"></path><path d="M505.45398369405336 425.2873920373087L614.585185879833 473.8757337126234 663.1735275551478 364.74453152684384 554.0423253693681 316.15618985152906z" fill="rgba(28, 83, 142, 0.4)" class="triangle-float1"></path><path d="M877.7248523993414 333.29152303623806L731.7340260617782 417.39395805622087 857.9782187203532 493.2491218056868z" fill="rgba(28, 83, 142, 0.4)" class="triangle-float3"></path><path d="M153.16139632666602 353.53622200751397L229.60921974158236 485.94773629020256 362.02073402427095 409.4999128752862 285.5729106093546 277.0883985925976z" fill="rgba(28, 83, 142, 0.4)" class="triangle-float2"></path><path d="M184.42773865824367 22.757733303079966L60.168683747193725-61.056057529213966 100.61394782594974 147.01678821412992z" fill="rgba(28, 83, 142, 0.4)" class="triangle-float1"></path><path d="M514.1390015935342 290.9437465837033L479.5489264213756 128.2102374396427 316.815417277315 162.8003126118013 351.4054924494736 325.5338217558619z" fill="rgba(28, 83, 142, 0.4)" class="triangle-float1"></path><path d="M308.34044836033354 481.25793387786206L269.0447007603606 565.5279365526009 415.0975785724552 582.3365566151908z" fill="rgba(28, 83, 142, 0.4)" class="triangle-float3"></path><path d="M1073.5628314673297 525.9359329319307L983.0438562687115 386.54893446317726 843.6568577999581 477.0679096617955 934.1758329985763 616.4549081305489z" fill="rgba(28, 83, 142, 0.4)" class="triangle-float3"></path><path d="M320.88228905072367 90.54631571624716L444.1744529323224 132.9992122429163 486.62734945899155 9.707048361317533 363.3351855773928-32.74584816535159z" fill="rgba(28, 83, 142, 0.4)" class="triangle-float1"></path><path d="M352.903,660.679C405.079,660.176,437.928,611.234,464.269,566.193C490.976,520.527,516.789,468.255,493.1,420.953C467.501,369.837,410.071,343.629,352.903,343.819C296.075,344.008,240.242,371.313,214.312,421.88C190.127,469.045,211.147,522.534,237.753,568.377C264.218,613.978,300.181,661.187,352.903,660.679" fill="rgba(28, 83, 142, 0.4)" class="triangle-float1"></path><path d="M1091.824088195662 373.15520334526826L1131.4815086052993 279.7281756507567 1038.0544809107878 240.07075524111931 998.3970605011505 333.4977829356309z" fill="rgba(28, 83, 142, 0.4)" class="triangle-float1"></path><path d="M395.84774998634555 344.38202949306213L296.95220012420907 354.7763706325006 307.3465412636475 453.6719204946371 406.242091125784 443.27757935519867z" fill="rgba(28, 83, 142, 0.4)" class="triangle-float1"></path></g><defs><mask id="SvgjsMask1025"><rect width="1440" height="560" fill="#ffffff"></rect></mask><style>
                @keyframes float1 {
                    0%{transform: translate(0, 0)}
                    50%{transform: translate(-10px, 0)}
                    100%{transform: translate(0, 0)}
                }

                .triangle-float1 {
                    animation: float1 5s infinite;
                }

                @keyframes float2 {
                    0%{transform: translate(0, 0)}
                    50%{transform: translate(-5px, -5px)}
                    100%{transform: translate(0, 0)}
                }

                .triangle-float2 {
                    animation: float2 4s infinite;
                }

                @keyframes float3 {
                    0%{transform: translate(0, 0)}
                    50%{transform: translate(0, -10px)}
                    100%{transform: translate(0, 0)}
                }

                .triangle-float3 {
                    animation: float3 6s infinite;
                }
            </style></defs></svg>